<svg width="102" height="151" viewBox="0 0 102 151" fill="none" xmlns="http://www.w3.org/2000/svg">
<path fill-rule="evenodd" clip-rule="evenodd" d="M101.589 62.5301C104.237 46.8119 93.9375 37.9695 79.6597 31.7812L85.0904 10.5663L73.7454 6.93407L68.4574 27.5944C65.4684 26.6458 62.4178 25.6949 59.3647 24.8139L64.7191 4.0161L53.3741 0.383848L47.9433 21.5988C45.5014 20.88 43.0594 20.1613 40.6814 19.3749L25.0093 14.2554L21.5037 28.053C21.5037 28.053 29.9262 30.5991 29.7365 30.7321C34.31 32.2283 35.05 35.7541 34.8314 38.4752L28.6202 62.6007C28.9258 62.6818 29.3521 62.8373 29.7759 63.0627L28.5562 62.6683L19.8463 96.4995C19.2356 98.0867 17.674 100.409 14.5026 99.3838C14.6184 99.5979 6.26976 96.7046 6.26976 96.7046L0.0811005 111.384L14.8415 116.12C16.4876 116.67 18.1336 117.22 19.7797 117.77C20.8147 118.157 21.8521 118.475 22.9511 118.795L17.4514 140.217L28.7965 143.85L34.2272 122.635C37.3345 123.728 40.3211 124.746 43.251 125.623L37.8252 146.698L49.1702 150.33L54.6699 128.908C74.0503 133.812 88.8315 132.671 95.6941 112.838C101.249 96.8761 96.3388 87.3904 86.2646 80.9354C93.8483 79.2523 99.6498 73.8656 101.594 62.3903L101.589 62.5301ZM73.9497 103.229C70.1659 117.926 49.93 111.031 40.6647 107.894C39.8121 107.583 39.0802 107.347 38.4691 107.185L45.756 78.7598C46.5495 78.9986 47.4637 79.3118 48.5627 79.6318C58.1483 82.4302 77.8073 88.1847 73.9497 103.229ZM50.9991 66.425C58.7391 69.0862 75.562 74.8074 78.9889 61.4968C82.4896 47.839 66.1276 43.0443 58.1289 40.7235C57.2123 40.4802 56.4188 40.2414 55.8101 40.0093L49.1706 65.7986C49.7201 65.9586 50.3288 66.1907 51.0607 66.4273L50.9991 66.425Z" fill="#F41CCB"/>
</svg>
