<svg width="229" height="309" viewBox="0 0 229 309" fill="none" xmlns="http://www.w3.org/2000/svg">
<path fill-rule="evenodd" clip-rule="evenodd" d="M47.1141 168.941L92.4319 100.864L171.303 116.273L62.0364 27.4663L47.1141 168.941ZM54.4273 179.919L97.8278 113.771L173.499 128.769L130.928 194.563L54.3886 179.824L54.4273 179.919ZM56.7924 192.565C84.6781 197.982 113.81 203.534 136.294 207.926L180.865 139.613C175.693 191.222 171.436 234.226 166.568 281.82L144.169 263.626C113.977 239.098 82.9375 213.823 56.7924 192.565Z" fill="#7E1683"/>
<path fill-rule="evenodd" clip-rule="evenodd" d="M62.0361 27.4663L92.3929 100.77L171.356 116.139L62.0361 27.4663ZM97.7353 113.81L173.867 128.612L130.927 194.563L97.8275 113.771L97.7353 113.81ZM136.294 207.926L180.957 139.574C179.011 189.806 166.568 281.82 166.568 281.82L136.294 207.926Z" fill="#7E1683"/>
</svg>
