<svg width="64" height="75" viewBox="0 0 64 75" fill="none" xmlns="http://www.w3.org/2000/svg">
<path d="M37.7304 72.9972L39.3841 64.5103C39.4868 64.0257 39.413 63.5735 39.11 63.2021C38.8194 62.8006 38.4418 62.6092 37.9495 62.6163L37.6894 62.614L37.0703 62.5334C36.7948 62.4896 36.479 62.4643 36.1477 62.3974C35.8041 62.3606 35.3893 62.2592 34.9342 62.1762C34.4792 62.0932 34.0087 61.9687 33.5103 61.8327C33.012 61.6967 32.4858 61.5491 31.9039 61.3785C31.322 61.2079 30.7928 60.9888 30.2357 60.7582C26.364 59.1554 23.3418 56.6041 21.1815 53.0743C19.0211 49.5445 17.9914 45.5691 18.1326 41.1297L35.7918 48.4402C36.1261 48.5786 36.4821 48.5854 36.86 48.4607C37.2379 48.3361 37.5292 48.1053 37.7339 47.7683L41.1053 42.6983C41.3876 42.2529 41.4903 41.7683 41.3732 41.2631C41.2282 40.7462 40.9252 40.3748 40.4796 40.1903L19.5336 31.5192C20.3691 29.2647 21.0894 27.5248 21.6697 26.3594L43.9525 35.584C44.7882 35.93 45.4355 35.706 45.9349 34.8937L49.3435 29.7337C49.6134 29.3183 49.7037 28.8637 49.5712 28.3169C49.4541 27.8116 49.1789 27.4517 48.6775 27.2442L27.3138 18.4001C30.3609 15.3744 33.8495 13.4101 37.7424 12.597C41.6478 11.754 45.5363 12.1338 49.3522 13.7136C49.4885 13.6997 49.9341 13.8842 50.6643 14.327C51.407 14.7399 51.8278 14.9844 51.9516 15.0005C52.0631 15.0466 52.4406 15.2381 53.0873 15.6463C53.7339 16.0546 54.0433 16.253 54.0433 16.253L54.7766 16.7673C54.9746 16.9196 55.1571 17.0303 55.2561 17.1064L55.4262 17.2471C55.7665 17.5286 56.141 17.6485 56.5622 17.5768C56.9834 17.5052 57.3428 17.2675 57.6002 16.8821L62.7913 9.85961C63.0487 9.47422 63.1823 9.07271 63.1363 8.63201C63.0193 8.12672 62.8122 7.75989 62.5276 7.50153C60.0249 5.58696 57.2339 3.97472 54.1421 2.6948C47.318 -0.130238 40.3487 -0.555576 33.2622 1.43032C26.1479 3.40468 20.1459 7.42083 15.2686 13.4488L10.7842 11.5923C10.3664 11.4193 9.94222 11.4194 9.5395 11.6041C9.13678 11.7888 8.84848 12.0911 8.64978 12.5711L6.32748 18.1808C6.1412 18.6308 6.11902 19.0785 6.27337 19.4937C6.42772 19.909 6.69987 20.1974 7.14553 20.3819L10.2094 21.6503C9.48009 23.1756 8.73195 24.904 8.01769 26.787L5.0095 25.5417C4.61955 25.3802 4.22322 25.3918 3.78022 25.595C3.3775 25.7797 3.04893 26.1005 2.87507 26.5205L0.577599 32.0702C0.403737 32.4902 0.393981 32.9078 0.563764 33.3646C0.718113 33.7799 1.0057 34.1098 1.39565 34.2712L5.74081 36.07C4.66979 44.0953 5.89394 51.3841 9.45052 57.8462C12.9947 64.3384 18.3521 69.0512 25.4548 71.9915C26.0397 72.2337 26.6247 72.4758 27.2344 72.658C27.8318 72.8701 28.4137 73.0407 28.9677 73.1998C29.5218 73.3589 30.0604 73.4765 30.5866 73.624C31.1252 73.7416 31.5957 73.8661 32.0508 73.9491C32.5059 74.032 32.9206 74.1335 33.32 74.1934C33.7193 74.2533 34.0908 74.3016 34.4066 74.327C34.7224 74.3523 35.0104 74.366 35.2178 74.4168C35.4376 74.4375 35.6295 74.4467 35.7658 74.4328L36.0135 74.465C36.3974 74.4834 36.7474 74.3472 37.0914 74.0679C37.423 73.8187 37.6123 73.4402 37.6902 73.0156L37.7304 72.9972Z" fill="#F9F91C"/>
</svg>
