<svg width="117" height="156" viewBox="0 0 117 156" fill="none" xmlns="http://www.w3.org/2000/svg">
<g clip-path="url(#clip0_79_15451)">
<path d="M59.4523 105.53L103.702 93.6997L110.118 116.235L82.9086 123.509C85.1929 129.871 87.1131 135.784 89.4364 142.074L66.5145 148.202L61.2052 129.554L33.8859 136.858C31.7846 129.478 28.7489 122.347 28.1662 115.106C27.7832 111.268 30.9755 106.898 32.5348 103.026C38.2135 90.3521 43.9563 77.904 49.8548 65.1717C52.1561 60.3733 54.5055 55.7438 57.1182 50.377L14.7375 61.7073L8.32141 39.1719L33.497 32.4414L28.1235 13.568L50.1109 7.68971L55.3561 26.1124L82.8403 18.7646C85.0057 26.3703 88.0415 33.5008 88.6241 40.7415C89.0071 44.5798 85.8148 48.9497 84.0357 52.881C78.357 65.5545 72.6142 78.0027 66.7156 90.7349C64.5335 95.7441 62.1681 100.317 59.4523 105.53Z" fill="#DB1FFC"/>
</g>
<defs>
<clipPath id="clip0_79_15451">
<rect width="80" height="140" fill="white" transform="matrix(0.966071 -0.258275 0.273829 0.961779 0.583984 20.9304)"/>
</clipPath>
</defs>
</svg>
