<svg width="51" height="50" viewBox="0 0 51 50" fill="none" xmlns="http://www.w3.org/2000/svg">
<path fill-rule="evenodd" clip-rule="evenodd" d="M17.1667 4.16669H33.2083C40.1119 4.16669 45.7084 9.76313 45.7084 16.6667V32.7084C45.7084 39.6119 40.1119 45.2084 33.2083 45.2084H17.1667C10.2631 45.2084 4.66669 39.6119 4.66669 32.7084V16.6667C4.66669 9.76313 10.2631 4.16669 17.1667 4.16669ZM42.5834 16.6667C42.5719 11.4938 38.3813 7.30314 33.2083 7.29169H17.1667C11.9938 7.30314 7.80314 11.4938 7.79169 16.6667V32.7084C7.80314 37.8813 11.9938 42.0719 17.1667 42.0834H33.2083C38.3813 42.0719 42.5719 37.8813 42.5834 32.7084V16.6667Z" fill="black"/>
<path fill-rule="evenodd" clip-rule="evenodd" d="M16.2292 24.6875C16.2406 19.7447 20.2447 15.7406 25.1875 15.7292C30.1303 15.7406 34.1344 19.7447 34.1459 24.6875C34.1459 29.6351 30.1351 33.6459 25.1875 33.6459C20.24 33.6459 16.2292 29.6351 16.2292 24.6875ZM31.0209 24.6875C31.0209 21.4659 28.4092 18.8542 25.1875 18.8542C21.9706 18.8656 19.3656 21.4706 19.3542 24.6875C19.3542 27.9092 21.9659 30.5209 25.1875 30.5209C28.4092 30.5209 31.0209 27.9092 31.0209 24.6875Z" fill="black"/>
<path d="M32.8125 13.5521C32.8125 12.3037 33.8245 11.2917 35.0729 11.2917C36.3213 11.2917 37.3333 12.3037 37.3333 13.5521C37.3333 14.8005 36.3213 15.8125 35.0729 15.8125C33.8245 15.8125 32.8125 14.8005 32.8125 13.5521Z" fill="black"/>
</svg>
