<svg width="48" height="48" viewBox="0 0 48 48" fill="none" xmlns="http://www.w3.org/2000/svg">
<path d="M17.0999 20.7801V25.7801H24.2199C23.328 28.9468 20.3878 31.0941 17.0999 30.9801C13.5907 30.9989 10.4898 28.7005 9.48707 25.3376C8.48432 21.9748 9.82012 18.3535 12.7665 16.4473C15.7129 14.5412 19.5635 14.8071 22.2199 17.1001L25.8999 13.4201C21.5804 9.47681 15.168 8.88035 10.1953 11.9594C5.22261 15.0384 2.89837 21.0444 4.50302 26.6687C6.10766 32.2931 11.2511 36.1685 17.0999 36.1601C28.0799 36.1601 30.4999 25.9001 29.4199 20.8001L17.0999 20.7801Z" fill="black"/>
<path d="M44.1599 21.6401H39.9999V17.4801H37.0799V21.6401H32.9399V24.5401H37.0799V28.7001H39.9999V24.5401H44.1599V21.6401Z" fill="black"/>
</svg>
