<svg width="25" height="25" viewBox="0 0 25 25" fill="none" xmlns="http://www.w3.org/2000/svg">
<g id="Interface essential/Instagram">
<g id="Icon">
<path fill-rule="evenodd" clip-rule="evenodd" d="M8.33349 2.08331H16.3543C19.8061 2.08331 22.6043 4.88153 22.6043 8.33331V16.3541C22.6043 19.8059 19.8061 22.6041 16.3543 22.6041H8.33349C4.88172 22.6041 2.0835 19.8059 2.0835 16.3541V8.33331C2.0835 4.88153 4.88172 2.08331 8.33349 2.08331ZM21.0418 8.33331C21.0361 5.74685 18.9408 3.65154 16.3543 3.64581H8.3335C5.74704 3.65154 3.65172 5.74685 3.646 8.33331V16.3541C3.65172 18.9406 5.74704 21.0359 8.3335 21.0416H16.3543C18.9408 21.0359 21.0361 18.9406 21.0418 16.3541V8.33331Z" fill="black"/>
<path fill-rule="evenodd" clip-rule="evenodd" d="M7.86475 12.3437C7.87047 9.87233 9.87251 7.87029 12.3439 7.86456C14.8153 7.87029 16.8174 9.87233 16.8231 12.3437C16.8231 14.8175 14.8177 16.8229 12.3439 16.8229C9.87014 16.8229 7.86475 14.8175 7.86475 12.3437ZM15.2606 12.3437C15.2606 10.7329 13.9547 9.42706 12.3439 9.42706C10.7355 9.43278 9.43296 10.7353 9.42725 12.3437C9.42725 13.9546 10.7331 15.2604 12.3439 15.2604C13.9547 15.2604 15.2606 13.9546 15.2606 12.3437Z" fill="black"/>
<path d="M16.1564 6.77602C16.1564 6.15182 16.6624 5.64581 17.2866 5.64581C17.9108 5.64581 18.4168 6.15182 18.4168 6.77602C18.4168 7.40022 17.9108 7.90623 17.2866 7.90623C16.6624 7.90623 16.1564 7.40022 16.1564 6.77602Z" fill="black"/>
</g>
</g>
</svg>
