<svg width="106" height="107" viewBox="0 0 106 107" fill="none" xmlns="http://www.w3.org/2000/svg">
<path d="M74.5356 86.6296L60.1274 80.1772L68.8875 60.616L45.7862 69.249L36.8435 46.2658L28.0834 65.8271L13.2136 59.168C15.136 72.181 23.4898 84.1136 36.5131 89.9458C49.5364 95.778 63.9548 94.1785 74.9898 86.833L74.5281 86.6262L74.5356 86.6296Z" fill="#817878"/>
<path d="M24.2274 54.1026L37.6986 24.0213L50.8463 57.9489L84.9127 45.1651L71.4432 75.2426L82.3835 80.1419C85.284 77.0657 87.7108 73.498 89.5462 69.3996C98.4743 49.463 89.3677 25.9603 69.2135 16.9348C49.0593 7.90917 25.4613 16.7659 16.5332 36.7025C14.6961 40.8046 13.6522 44.9871 13.2887 49.1995L24.229 54.0988L24.2274 54.1026Z" fill="#F41CCB"/>
</svg>
