<svg width="44" height="44" viewBox="0 0 44 44" fill="none" xmlns="http://www.w3.org/2000/svg">
<g filter="url(#filter0_d_1301_1834)">
<circle cx="22" cy="22" r="18" fill="white"/>
</g>
<g clip-path="url(#clip0_1301_1834)">
<path d="M22.0114 21.9933C19.6314 17.871 20.1384 12.8825 22.8962 9.3658C23.6839 8.35677 22.6355 6.91435 21.4101 7.29853C19.9799 7.75474 18.5889 8.46546 17.2984 9.45687C12.4907 13.1564 10.7956 19.847 13.2662 25.3795C16.557 32.7326 25.3525 35.4603 32.1422 31.5403C32.9851 31.0536 33.74 30.4946 34.4368 29.8614C35.3937 28.9856 34.687 27.3614 33.4011 27.5341C28.8229 28.1912 24.3065 25.9952 22.0114 21.9933Z" fill="url(#paint0_linear_1301_1834)"/>
</g>
<defs>
<filter id="filter0_d_1301_1834" x="3" y="3" width="38" height="38" filterUnits="userSpaceOnUse" color-interpolation-filters="sRGB">
<feFlood flood-opacity="0" result="BackgroundImageFix"/>
<feColorMatrix in="SourceAlpha" type="matrix" values="0 0 0 0 0 0 0 0 0 0 0 0 0 0 0 0 0 0 127 0" result="hardAlpha"/>
<feOffset/>
<feGaussianBlur stdDeviation="0.5"/>
<feComposite in2="hardAlpha" operator="out"/>
<feColorMatrix type="matrix" values="0 0 0 0 0 0 0 0 0 0 0 0 0 0 0 0 0 0 0.15 0"/>
<feBlend mode="normal" in2="BackgroundImageFix" result="effect1_dropShadow_1301_1834"/>
<feBlend mode="normal" in="SourceGraphic" in2="effect1_dropShadow_1301_1834" result="shape"/>
</filter>
<linearGradient id="paint0_linear_1301_1834" x1="14.7186" y1="10.8088" x2="28.0515" y2="33.902" gradientUnits="userSpaceOnUse">
<stop stop-color="#8B81FF"/>
<stop offset="0.463542" stop-color="#9C32F0"/>
<stop offset="1" stop-color="#EC14E3"/>
</linearGradient>
<clipPath id="clip0_1301_1834">
<rect width="32" height="32" fill="white" transform="translate(0.143555 16.1436) rotate(-30)"/>
</clipPath>
</defs>
</svg>
