<svg width="38" height="39" viewBox="0 0 38 39" fill="none" xmlns="http://www.w3.org/2000/svg">
<g filter="url(#filter0_d_1316_4339)">
<circle cx="19" cy="19.3333" r="18" fill="white"/>
</g>
<g clip-path="url(#clip0_1316_4339)">
<path d="M11.0617 10.7313C11.5861 10.2105 11.5864 9.36244 11.0624 8.84131L10.5543 8.33605C10.034 7.81866 9.19316 7.81983 8.67432 8.33867C8.15445 8.85854 8.15445 9.70142 8.67432 10.2213L9.18098 10.728C9.69994 11.2469 10.5409 11.2484 11.0617 10.7313ZM8.33301 18.6666C8.33301 17.9303 7.73605 17.3333 6.99968 17.3333H5.66634C4.92996 17.3333 4.33301 17.9303 4.33301 18.6666C4.33301 19.403 4.92996 20 5.66634 20H6.99968C7.73605 20 8.33301 19.403 8.33301 18.6666ZM20.333 5.39998C20.333 4.6636 19.7361 4.06665 18.9997 4.06665C18.2633 4.06665 17.6663 4.6636 17.6663 5.39998V6.66665C17.6663 7.40303 18.2633 7.99998 18.9997 7.99998C19.7361 7.99998 20.333 7.40303 20.333 6.66665V5.39998ZM29.3263 10.22C29.8455 9.70083 29.8455 8.85913 29.3263 8.33998C28.8072 7.82083 27.9655 7.82084 27.4463 8.33998L26.9397 8.84665C26.4205 9.3658 26.4205 10.2075 26.9397 10.7266C27.4588 11.2458 28.3005 11.2458 28.8197 10.7266L29.3263 10.22ZM26.9197 26.6133C26.4038 27.1292 26.4026 27.9653 26.9171 28.4826L27.4356 29.004C27.9529 29.5242 28.7943 29.5254 29.313 29.0066C29.8317 28.4879 29.8306 27.6465 29.3104 27.1293L28.7889 26.6107C28.2716 26.0963 27.4356 26.0974 26.9197 26.6133ZM30.9997 17.3333C30.2633 17.3333 29.6663 17.9303 29.6663 18.6666C29.6663 19.403 30.2633 20 30.9997 20H32.333C33.0694 20 33.6663 19.403 33.6663 18.6666C33.6663 17.9303 33.0694 17.3333 32.333 17.3333H30.9997ZM18.9997 10.6666C14.5863 10.6666 10.9997 14.2533 10.9997 18.6666C10.9997 23.08 14.5863 26.6666 18.9997 26.6666C23.413 26.6666 26.9997 23.08 26.9997 18.6666C26.9997 14.2533 23.413 10.6666 18.9997 10.6666ZM17.6663 31.9333C17.6663 32.6697 18.2633 33.2666 18.9997 33.2666C19.7361 33.2666 20.333 32.6697 20.333 31.9333V30.6666C20.333 29.9303 19.7361 29.3333 18.9997 29.3333C18.2633 29.3333 17.6663 29.9303 17.6663 30.6666V31.9333ZM8.66777 27.1133C8.1511 27.6329 8.15227 28.4726 8.67039 28.9907C9.19056 29.5109 10.0343 29.5097 10.553 28.9881L11.0649 28.4733C11.5816 27.9537 11.5804 27.1141 11.0623 26.5959C10.5421 26.0758 9.6984 26.0769 9.17969 26.5986L8.66777 27.1133Z" fill="url(#paint0_linear_1316_4339)"/>
</g>
<defs>
<filter id="filter0_d_1316_4339" x="0" y="0.333252" width="38" height="38" filterUnits="userSpaceOnUse" color-interpolation-filters="sRGB">
<feFlood flood-opacity="0" result="BackgroundImageFix"/>
<feColorMatrix in="SourceAlpha" type="matrix" values="0 0 0 0 0 0 0 0 0 0 0 0 0 0 0 0 0 0 127 0" result="hardAlpha"/>
<feOffset/>
<feGaussianBlur stdDeviation="0.5"/>
<feComposite in2="hardAlpha" operator="out"/>
<feColorMatrix type="matrix" values="0 0 0 0 0.2 0 0 0 0 0.2 0 0 0 0 0.2 0 0 0 0.25 0"/>
<feBlend mode="normal" in2="BackgroundImageFix" result="effect1_dropShadow_1316_4339"/>
<feBlend mode="normal" in="SourceGraphic" in2="effect1_dropShadow_1316_4339" result="shape"/>
</filter>
<linearGradient id="paint0_linear_1316_4339" x1="18.9997" y1="4.06665" x2="18.9997" y2="33.2666" gradientUnits="userSpaceOnUse">
<stop stop-color="#8B81FF"/>
<stop offset="0.463542" stop-color="#9C32F0"/>
<stop offset="1" stop-color="#EC14E3"/>
</linearGradient>
<clipPath id="clip0_1316_4339">
<rect width="32" height="32" fill="white" transform="translate(3 3.33325)"/>
</clipPath>
</defs>
</svg>
