<svg width="63" height="81" viewBox="0 0 63 81" fill="none" xmlns="http://www.w3.org/2000/svg">
<path fill-rule="evenodd" clip-rule="evenodd" d="M40.6191 0.856681L53.5618 5.76086C52.197 8.58945 50.8007 11.4061 49.4673 14.2466C54.3623 16.5331 58.6645 19.9981 62.1638 24.0581C58.4239 28.1094 54.6721 32.192 50.9322 36.2433C48.4129 31.6911 44.1705 28.0689 39.2655 26.2823C38.0254 25.8484 36.67 25.6226 35.3675 25.9206C34.5267 26.1416 33.7596 26.6424 33.3225 27.4122C32.9572 27.9933 32.7135 28.7284 32.876 29.4375C33.046 30.2214 33.5952 30.8612 34.1923 31.3753C35.4179 32.4153 36.949 33.0314 38.4007 33.7614C41.7601 35.538 45.0598 37.4718 47.8876 39.9823C50.0989 41.9355 51.9928 44.3439 52.9306 47.1816C53.8457 49.7948 53.8646 52.68 53.2297 55.3895C52.5457 58.512 51.247 61.5456 49.2013 64.0802C47.5915 66.1324 45.5496 67.8051 43.281 69.0321C38.558 71.5955 32.8348 72.0532 27.6634 70.7772C26.6362 73.9496 25.6404 77.1339 24.6327 80.3496L12.3512 75.696C13.6814 72.6744 15.0866 69.6452 16.3853 66.6117C13.1581 65.245 10.1583 63.2809 7.54641 60.9601C5.01707 58.7066 2.74533 56.1549 0.770226 53.3919C4.62536 49.1325 8.43704 44.8926 12.2922 40.6332C13.7905 43.3235 15.4942 45.9477 17.5738 48.2467C19.8065 50.7116 22.5141 52.7809 25.6197 53.9936C27.0998 54.5544 28.6353 55.0643 30.2438 55.0982C31.2138 55.1059 32.2794 54.8622 32.9924 54.125C33.7488 53.3683 34.1601 52.193 33.8414 51.1369C33.6159 50.4039 33.1612 49.7999 32.6271 49.3097C31.9085 48.6417 31.067 48.107 30.2451 47.6157C27.1105 45.8164 23.9085 44.0994 21.1033 41.8133C18.8442 39.986 16.7362 37.8561 15.3833 35.2569C14.523 33.6358 13.9474 31.8348 13.778 30.0078C13.5298 27.2515 14.0822 24.4748 15.0949 21.9086C16.1839 19.0474 17.8951 16.3501 20.2696 14.3717C22.3593 12.5733 24.9428 11.4656 27.6227 10.8621C30.8512 10.1427 34.1596 10.0653 37.4473 10.2317C38.494 7.10273 39.5408 3.97374 40.5876 0.844748L40.6191 0.856681Z" fill="#3AB83A"/>
</svg>
